<svg xmlns="http://www.w3.org/2000/svg" xmlns:xlink="http://www.w3.org/1999/xlink" width="18.29" height="11.66" viewBox="0 0 18.29 11.66">
  <defs>
    <clipPath id="clip-path">
      <rect id="Rectangle_92" data-name="Rectangle 92" width="18.29" height="11.66" transform="translate(0 0)" fill="#707070"/>
    </clipPath>
  </defs>
  <g id="Group_490" data-name="Group 490" transform="translate(0 0)">
    <g id="Group_489" data-name="Group 489" transform="translate(0 0)" clip-path="url(#clip-path)">
      <path id="Path_83" data-name="Path 83" d="M24.093,4.722C22.872,3.3,19.581,0,15.365,0a9.141,9.141,0,0,0-3.98.963l1.085.758a7.753,7.753,0,0,1,2.9-.586c3.744,0,6.749,3.024,7.87,4.327a.565.565,0,0,1,0,.736A15.439,15.439,0,0,1,21.42,7.991l.958.672a16.67,16.67,0,0,0,1.716-1.725,1.685,1.685,0,0,0,0-2.216" transform="translate(-6.218 0)" fill="#707070"/>
      <path id="Path_84" data-name="Path 84" d="M20.638,8.105l1.125.79a3.2,3.2,0,0,0,.032-.472A3.677,3.677,0,0,0,18.123,4.75a3.64,3.64,0,0,0-1.688.413l1.121.786a2.586,2.586,0,0,1,.567-.064,2.536,2.536,0,0,1,2.514,2.22" transform="translate(-8.976 -2.593)" fill="#707070"/>
      <path id="Path_85" data-name="Path 85" d="M15.238,9.814l-.98-.686L12.442,7.857,11.5,7.194,7.45,4.36,6.5,3.693l-1.425-1L4.06,1.981,2.448.855a.566.566,0,0,0-.79.136.573.573,0,0,0,.136.795l1.257.881c-.327.241-.635.49-.917.736a17.238,17.238,0,0,0-1.72,1.73,1.685,1.685,0,0,0,0,2.216C1.636,8.769,4.931,12.07,9.147,12.07a9.121,9.121,0,0,0,3.976-.963,11.406,11.406,0,0,0,1.112-.613l1.611,1.131a.557.557,0,0,0,.322.1.569.569,0,0,0,.327-1.035ZM10.845,8.12a2.467,2.467,0,0,1-1.135.595A2.533,2.533,0,0,1,6.633,6.558,1.84,1.84,0,0,1,6.61,6.24,2.463,2.463,0,0,1,6.8,5.287Zm1.2,2.229a7.753,7.753,0,0,1-2.9.586c-3.749,0-6.753-3.024-7.87-4.327a.554.554,0,0,1,0-.736A15.439,15.439,0,0,1,3.093,4.079c.29-.245.6-.49.939-.726l1.82,1.276a3.465,3.465,0,0,0-.345,1.14,3.258,3.258,0,0,0-.032.472A3.677,3.677,0,0,0,9.147,9.913,3.622,3.622,0,0,0,10.831,9.5a3.706,3.706,0,0,0,.962-.713l1.421.994a9.3,9.3,0,0,1-1.171.568" transform="translate(0 -0.41)" fill="#707070"/>
    </g>
  </g>
</svg>
